<?xml version="1.0"?>
<svg width="640" height="480" xmlns="http://www.w3.org/2000/svg" xmlns:svg="http://www.w3.org/2000/svg">
 <!-- Created with SVG-edit - https://github.com/SVG-Edit/svgedit-->
 <g class="layer">
  <title>Layer 1</title>
  <polygon cx="71.5" cy="104.5" fill="#0037ff" id="svg_3" orient="point" point="3" points="71.5,68.36445271235293 Infinity,-Infinity 102.79430193075623,122.56777364382353 Infinity,Infinity 40.20569806924377,122.56777364382354 -Infinity,-Infinity 71.5,68.36445271235293 Infinity,-Infinity " r="36.135547" r2="Infinity" shape="star" stroke="#000000" stroke-width="5" strokeWidth="5" strokecolor="#000000"/>
  <polygon cx="109.5" cy="80.5" fill="#0037ff" id="svg_4" orient="point" point="3" points="109.50000000000001,-43.89542685413409 Infinity,-Infinity 217.2295997702891,142.69771342706701 Infinity,Infinity 1.770400229710944,142.69771342706707 -Infinity,-Infinity 109.49999999999997,-43.89542685413409 Infinity,-Infinity " r="124.395427" r2="Infinity" shape="star" stroke="#000000" stroke-width="5" strokeWidth="5" strokecolor="#000000"/>
  <polygon cx="119.5" cy="325.5" fill="#0037ff" id="svg_8" orient="point" point="3" r="0" r2="0" shape="star" strokeWidth="5" strokecolor="none"/>
  <polygon cx="128.5" cy="327.5" fill="#0037ff" id="svg_9" orient="point" point="3" points="80 4.0295 117.384 68.7808 154.768 133.532 80 133.532 5.23166 133.532 42.6158 68.7808 80 4.0295 117.384 68.7808" r="113.470505" r2="56.735253" shape="star" stroke-width="5" strokeWidth="5" strokecolor="none"/>
  <polygon cx="71.5" cy="104.5" fill="#0037ff" id="svg_10" orient="point" point="3" points="71.5,68.36445617675781 " r="36.135547" r2="Infinity" shape="star" stroke="#000000" stroke-width="5" strokeWidth="5" strokecolor="#000000"/>
  <polygon cx="109.5" cy="80.5" fill="#0037ff" id="svg_11" orient="point" point="3" points="109.5,-43.89542770385742 " r="124.395427" r2="Infinity" shape="star" stroke="#000000" stroke-width="5" strokeWidth="5" strokecolor="#000000"/>
  <polygon cx="119.5" cy="325.5" fill="#0037ff" id="svg_12" orient="point" point="3" r="0" r2="0" shape="star" strokeWidth="5" strokecolor="none"/>
  <polygon cx="128.5" cy="327.5" fill="#0037ff" id="svg_14" orient="point" point="3" points="79 4.0295 116.384 68.7808 153.768 133.532 79 133.532 4.23166 133.532 41.6158 68.7808 79 4.0295 116.384 68.7808" r="113.470505" r2="56.735253" shape="star" stroke-width="5" strokeWidth="5" strokecolor="none"/>
  <polygon cx="128.5" cy="327.5" fill="#ffffff" id="svg_15" orient="point" point="3" points="80 31.7487 117.384 96.5 154.768 161.251 80 161.251 5.23166 161.251 42.6158 96.5 80 31.7487 117.384 96.5" r="113.470505" r2="56.735253" shape="star" stroke-width="5" strokeWidth="5" strokecolor="none"/>
  <rect fill="#0037ff" height="12" id="svg_16" stroke-dasharray="null" stroke-linecap="null" stroke-linejoin="null" stroke-width="5" width="118.999992" x="19.5" y="88.5"/>
  <circle cx="218.500003" cy="69.500002" fill="#0037ff" id="svg_18" r="67.470682" stroke-dasharray="null" stroke-linecap="null" stroke-linejoin="null" stroke-width="5"/>
  <rect fill="#ffffff" height="25" id="svg_23" stroke-dasharray="null" stroke-linecap="null" stroke-linejoin="null" stroke-width="5" width="83.000001" x="202.5" y="34.5"/>
  <rect fill="#ffffff" height="25" id="svg_24" stroke-dasharray="null" stroke-linecap="null" stroke-linejoin="null" stroke-width="5" width="83.000001" x="202.5" y="83.5"/>
 </g>
</svg>